<svg width="24" height="24" viewBox="0 0 24 24" fill="none" xmlns="http://www.w3.org/2000/svg">
<path d="M12 5.44147C14.1361 5.44147 14.3891 5.4496 15.2327 5.48809C16.0126 5.52369 16.4362 5.65401 16.7182 5.76354C17.0916 5.90867 17.3581 6.08205 17.638 6.36198C17.9179 6.64191 18.0913 6.90844 18.2364 7.28183C18.346 7.56376 18.4763 7.98735 18.5119 8.76731C18.5504 9.61091 18.5585 9.86391 18.5585 12C18.5585 14.1361 18.5504 14.3891 18.5119 15.2327C18.4763 16.0127 18.346 16.4363 18.2364 16.7182C18.0913 17.0916 17.9179 17.3581 17.638 17.638C17.3581 17.918 17.0916 18.0914 16.7182 18.2365C16.4362 18.346 16.0126 18.4763 15.2327 18.5119C14.3892 18.5504 14.1362 18.5586 12 18.5586C9.86375 18.5586 9.61075 18.5504 8.76731 18.5119C7.98732 18.4763 7.56373 18.346 7.28183 18.2365C6.90841 18.0914 6.64188 17.918 6.36195 17.638C6.08202 17.3581 5.90863 17.0916 5.76354 16.7182C5.65398 16.4363 5.52366 16.0127 5.48806 15.2327C5.44957 14.3891 5.44144 14.1361 5.44144 12C5.44144 9.86391 5.44957 9.61091 5.48806 8.76735C5.52366 7.98735 5.65398 7.56376 5.76354 7.28183C5.90863 6.90844 6.08202 6.64191 6.36195 6.36198C6.64188 6.08205 6.90841 5.90867 7.28183 5.76354C7.56373 5.65401 7.98732 5.52369 8.76728 5.48809C9.61088 5.4496 9.86388 5.44147 12 5.44147ZM12 4C9.8273 4 9.5549 4.00921 8.70161 4.04814C7.85007 4.08701 7.26855 4.22223 6.75966 4.42001C6.23359 4.62445 5.78745 4.898 5.34271 5.34274C4.89797 5.78748 4.62442 6.23363 4.41997 6.7597C4.2222 7.26859 4.08698 7.8501 4.04811 8.70164C4.00918 9.5549 4 9.82733 4 12C4 14.1727 4.00918 14.4451 4.04811 15.2984C4.08698 16.1499 4.2222 16.7314 4.41997 17.2403C4.62442 17.7664 4.89797 18.2125 5.34271 18.6573C5.78745 19.102 6.23359 19.3756 6.75966 19.58C7.26855 19.7778 7.85007 19.913 8.70161 19.9519C9.5549 19.9908 9.8273 20 12 20C14.1727 20 14.4451 19.9908 15.2984 19.9519C16.1499 19.913 16.7314 19.7778 17.2403 19.58C17.7664 19.3756 18.2125 19.102 18.6573 18.6573C19.102 18.2125 19.3755 17.7664 19.58 17.2403C19.7778 16.7314 19.913 16.1499 19.9519 15.2984C19.9908 14.4451 20 14.1727 20 12C20 9.82733 19.9908 9.5549 19.9519 8.70164C19.913 7.8501 19.7778 7.26859 19.58 6.7597C19.3755 6.23363 19.102 5.78748 18.6573 5.34274C18.2125 4.898 17.7664 4.62445 17.2403 4.42001C16.7314 4.22223 16.1499 4.08701 15.2984 4.04814C14.4451 4.00921 14.1727 4 12 4ZM12 7.89189C9.73114 7.89189 7.89186 9.73117 7.89186 12C7.89186 14.2689 9.73114 16.1081 12 16.1081C14.2688 16.1081 16.1081 14.2689 16.1081 12C16.1081 9.73117 14.2688 7.89189 12 7.89189ZM12 14.6667C10.5272 14.6667 9.3333 13.4728 9.3333 12C9.3333 10.5273 10.5272 9.33333 12 9.33333C13.4727 9.33333 14.6667 10.5273 14.6667 12C14.6667 13.4728 13.4727 14.6667 12 14.6667ZM17.2304 7.72959C17.2304 8.25979 16.8006 8.68961 16.2704 8.68961C15.7402 8.68961 15.3104 8.25979 15.3104 7.72959C15.3104 7.19939 15.7402 6.7696 16.2704 6.7696C16.8006 6.7696 17.2304 7.19939 17.2304 7.72959Z" fill="black"/>
</svg>
