<svg width="24" height="24" viewBox="0 0 24 24" fill="none" xmlns="http://www.w3.org/2000/svg">
<path d="M20 13.3736V19.2889H16.5707V13.7698C16.5707 12.3834 16.0747 11.4372 14.8334 11.4372C13.8858 11.4372 13.3219 12.0748 13.0738 12.6917C12.9833 12.9122 12.9601 13.2191 12.9601 13.5278V19.2889H9.52958C9.52958 19.2889 9.57579 9.94134 9.52958 8.97286H12.9597V10.4351C12.9528 10.4461 12.9437 10.4579 12.9372 10.4685H12.9597V10.4351C13.4154 9.73321 14.2293 8.73051 16.051 8.73051C18.308 8.73047 20 10.2049 20 13.3736ZM5.94116 4C4.76761 4 4 4.76976 4 5.78203C4 6.77223 4.7454 7.56536 5.89563 7.56536H5.91855C7.11484 7.56536 7.85882 6.77238 7.85882 5.78203C7.83628 4.76976 7.11484 4 5.94116 4ZM4.20374 19.2889H7.63291V8.97286H4.20374V19.2889Z" fill="black"/>
</svg>
