<svg width="24" height="24" viewBox="0 0 24 24" fill="none" xmlns="http://www.w3.org/2000/svg">
<path fill-rule="evenodd" clip-rule="evenodd" d="M5.89733 8.59133C5.91733 8.39467 5.842 8.20067 5.69533 8.06867L4.202 6.26867V6H8.84067L12.426 13.8633L15.578 6H20V6.26867L18.7227 7.49333C18.6127 7.57733 18.558 7.71533 18.5807 7.852V16.8507C18.558 16.9867 18.6127 17.1247 18.7227 17.2087L19.97 18.4333V18.702H13.6953V18.4333L14.988 17.1787C15.1147 17.052 15.1147 17.0147 15.1147 16.8207V9.54733L11.522 18.6727H11.0367L6.85333 9.54733V15.6633C6.81867 15.92 6.904 16.1793 7.08467 16.3647L8.76533 18.4033V18.6727H4V18.4033L5.68067 16.3647C5.86067 16.1787 5.94067 15.918 5.89733 15.6633V8.59133Z" fill="white"/>
</svg>
