<?xml version="1.0" encoding="UTF-8"?>
<svg width="208px" height="37px" viewBox="0 0 208 37" version="1.1" xmlns="http://www.w3.org/2000/svg" xmlns:xlink="http://www.w3.org/1999/xlink">
    <!-- Generator: Sketch 51.3 (57544) - http://www.bohemiancoding.com/sketch -->
    <title>Yumi Logo</title>
    <desc>Created with Sketch.</desc>
    <defs></defs>
    <g id="Page-1" stroke="none" stroke-width="1" fill="none" fill-rule="evenodd">
        <g id="Homepage---Desktop" transform="translate(-627.000000, -34.000000)" fill="#000000">
            <g id="Group-21" transform="translate(99.000000, 31.000000)">
                <g id="Yumi-Logo" transform="translate(528.000000, 3.000000)">
                    <polygon id="Fill-1" points="194 35 208 35 208 0 194 0"></polygon>
                    <polygon id="Fill-2" points="33.1410281 0 23.7928032 12.5473026 14.4445783 0 0 0 16.984297 21.6645211 16.984297 35 30.015703 35 30.015703 21.6645211 47 0"></polygon>
                    <polygon id="Fill-3" points="168.339747 0 158.499818 19.7882612 148.660071 0 131 0 131 35 143.255254 35 143.255254 13.8989983 153.830481 35 163.169519 35 173.744381 13.8989983 173.744381 35 186 35 185.999818 0"></polygon>
                    <path d="M86,37 C107.48436,37 125,23.0668174 125,3.18885046 L124.945537,0 L111.833958,0 L111.888964,3.1798016 C111.888964,17.399849 100.356441,26.5131635 86,26.5131635 C71.643559,26.5131635 60.1110364,17.399849 60.1110364,3.1798016 L60.1662228,0 L47.0544627,0 L47,3.18885046 C47,23.0668174 64.5158206,37.0001588 86,37" id="Fill-4"></path>
                </g>
            </g>
        </g>
    </g>
</svg>